<svg width="215" height="43" viewBox="0 0 215 43" fill="none" xmlns="http://www.w3.org/2000/svg">
<path d="M22.2792 11.4647C21.5404 6.92291 19.2422 4.62465 15.3844 4.56993C13.9616 4.56993 12.7167 4.89825 11.6497 5.5549C10.5826 6.21155 9.69343 7.08708 8.98206 8.18149C8.29805 9.2759 7.77821 10.5208 7.42252 11.9162C7.0942 13.3115 6.93004 14.748 6.93004 16.2254C6.93004 18.5784 7.25836 20.6715 7.91501 22.5046C8.59902 24.3104 9.58399 25.7331 10.8699 26.7728C12.1559 27.8125 13.7154 28.3324 15.5485 28.3324C17.2722 28.3324 18.9823 27.8946 20.6786 27.0191C22.3749 26.1162 23.7977 24.8713 24.9468 23.2844L26.9168 25.0902C25.5761 26.9233 24.167 28.3187 22.6896 29.2763C21.2121 30.2066 19.762 30.8358 18.3393 31.1642C16.9439 31.4925 15.6853 31.6566 14.5636 31.6566C12.4568 31.6566 10.5416 31.2873 8.8179 30.5486C7.0942 29.7825 5.60306 28.7428 4.34449 27.4295C3.11327 26.0888 2.15566 24.543 1.47165 22.7919C0.815003 21.0135 0.486679 19.0983 0.486679 17.0462C0.486679 15.1857 0.787643 13.3389 1.38957 11.5058C1.9915 9.67263 2.88071 8.01733 4.0572 6.53987C5.26106 5.03505 6.76587 3.84488 8.57166 2.96935C10.3774 2.06646 12.4705 1.61501 14.8509 1.61501C15.9179 1.61501 17.0807 1.79285 18.3393 2.14854C19.6252 2.47686 20.8291 2.96935 21.9509 3.62599L21.7867 1.90229H24.9468V11.4647H22.2792ZM39.0433 31.6566C37.0733 31.6566 35.2949 31.2326 33.708 30.3844C32.1211 29.5362 30.8625 28.3324 29.9323 26.7728C29.0294 25.1859 28.5779 23.3254 28.5779 21.1913C28.5779 18.9204 29.0431 16.9368 29.9733 15.2405C30.9309 13.5168 32.1895 12.1898 33.749 11.2595C35.3359 10.3019 37.0596 9.82311 38.9201 9.82311C40.8901 9.82311 42.6548 10.2472 44.2144 11.0954C45.7739 11.9435 47.0051 13.1611 47.908 14.748C48.8109 16.3075 49.2623 18.1817 49.2623 20.3705C49.2623 22.6688 48.8246 24.6661 47.949 26.3624C47.0735 28.0588 45.8697 29.3721 44.3375 30.3023C42.8053 31.2052 41.0406 31.6566 39.0433 31.6566ZM39.2074 28.7428C40.3018 28.7154 41.1226 28.3324 41.6698 27.5936C42.2444 26.8549 42.6411 25.9247 42.86 24.8029C43.0789 23.6811 43.1883 22.5457 43.1883 21.3965C43.1883 20.3842 43.1063 19.3582 42.9421 18.3185C42.8053 17.2788 42.5727 16.3349 42.2444 15.4867C41.9161 14.6385 41.4646 13.9545 40.8901 13.4347C40.3429 12.9148 39.6589 12.6686 38.8381 12.6959C37.771 12.7233 36.9228 13.1063 36.2935 13.8451C35.6916 14.5838 35.2538 15.5141 34.9802 16.6358C34.734 17.7302 34.6109 18.8794 34.6109 20.0832C34.6109 21.4786 34.7614 22.8466 35.0623 24.1873C35.3633 25.5279 35.8421 26.636 36.4987 27.5116C37.1828 28.3597 38.0856 28.7701 39.2074 28.7428Z" fill="#11CBEF"/>
<path d="M67.2958 31.4104C66.3655 29.1395 65.4353 26.8823 64.505 24.6387C63.6021 22.3952 62.6856 20.1516 61.7553 17.9081C61.5364 17.3882 61.2491 16.6632 60.8935 15.7329C60.5651 14.7753 60.2095 13.6809 59.8264 12.4497C59.4707 11.2185 59.1424 9.94623 58.8414 8.63293C58.8962 10.1651 58.9372 11.6152 58.9646 12.9832C58.9919 14.3239 58.9919 15.6098 58.9646 16.841C58.9646 18.0722 58.9509 19.3171 58.9235 20.5757C58.9235 21.8069 58.9235 23.0381 58.9235 24.2694C58.9235 25.0081 58.8962 25.7195 58.8414 26.4035C58.8141 27.0875 58.773 27.6073 58.7183 27.963C59.1834 27.9083 59.7443 27.8809 60.401 27.8809C61.085 27.8536 61.5638 27.8399 61.8374 27.8399V31H52.4802V28.2913C53.1095 28.264 53.6293 28.1819 54.0397 28.0451C54.4775 27.9083 54.8058 27.5936 55.0247 27.1012C55.2709 26.6087 55.394 25.8152 55.394 24.7208L55.6403 9.0023C55.6676 8.26357 55.695 7.5522 55.7224 6.86819C55.7497 6.18419 55.7771 5.66434 55.8044 5.30865C55.3667 5.33602 54.8195 5.36338 54.1628 5.39074C53.5062 5.39074 53.0274 5.40442 52.7264 5.43178V2.27166H61.7964L67.9935 18.1543C68.2397 18.7836 68.5133 19.5223 68.8143 20.3705C69.1152 21.1913 69.4025 21.9985 69.6761 22.7919C69.9497 23.558 70.1549 24.1736 70.2917 24.6387H70.3328C70.6885 23.6811 71.0168 22.7509 71.3177 21.848C71.6187 20.9451 71.9334 20.0696 72.2617 19.2214C73.3287 16.3759 74.3821 13.5441 75.4218 10.726C76.4888 7.90789 77.5559 5.08977 78.623 2.27166H88.1033V4.98033C87.5014 5.00769 86.9679 5.08977 86.5027 5.22657C86.0376 5.36338 85.6819 5.67802 85.4357 6.17051C85.2168 6.63563 85.121 7.42908 85.1484 8.55085L85.764 24.2694C85.8187 25.0081 85.8187 25.7195 85.764 26.4035C85.7093 27.0875 85.6546 27.6073 85.5998 27.963C86.065 27.9083 86.6259 27.8809 87.2825 27.8809C87.9665 27.8536 88.4453 27.8399 88.7189 27.8399V31H77.3097V28.2913C77.9389 28.264 78.4725 28.1819 78.9102 28.0451C79.3754 27.9083 79.7174 27.5936 79.9363 27.1012C80.1825 26.6087 80.2783 25.8152 80.2235 24.7208L79.8952 16.0202C79.8952 15.6919 79.8679 15.131 79.8131 14.3376C79.7584 13.5168 79.7037 12.6275 79.649 11.6699C79.6216 10.685 79.5942 9.76839 79.5669 8.92022C79.4848 9.11174 79.4027 9.30326 79.3206 9.49478C79.2386 9.65895 79.1702 9.83679 79.1154 10.0283L71.1125 31.4104H67.2958ZM100.877 31.6566C98.8795 31.6566 97.1148 31.2189 95.5826 30.3434C94.0504 29.4405 92.8603 28.1819 92.0121 26.5676C91.1639 24.926 90.7398 22.9971 90.7398 20.7809C90.7398 18.8657 91.1639 17.0736 92.0121 15.4046C92.8603 13.7356 94.0504 12.395 95.5826 11.3826C97.1422 10.343 98.9479 9.82311 101 9.82311C102.149 9.82311 103.271 9.98727 104.365 10.3156C105.46 10.6166 106.445 11.1501 107.32 11.9162C108.223 12.6823 108.934 13.722 109.454 15.0353C110.002 16.3485 110.261 17.9902 110.234 19.9601L96.7728 20.2064C96.7728 21.6838 96.9506 23.0108 97.3063 24.1873C97.6894 25.3638 98.305 26.294 99.1531 26.978C100.001 27.662 101.137 28.004 102.559 28.004C103.38 28.004 104.352 27.7852 105.473 27.3474C106.623 26.8823 107.662 26.0751 108.592 24.926L110.439 26.6497C109.454 28.0451 108.401 29.1121 107.279 29.8509C106.157 30.5622 105.036 31.041 103.914 31.2873C102.819 31.5335 101.807 31.6566 100.877 31.6566ZM97.019 17.3335H104.57C104.543 15.6372 104.215 14.447 103.586 13.763C102.956 13.0516 102.163 12.6959 101.205 12.6959C100.001 12.6959 99.0574 13.1337 98.3734 14.0092C97.6894 14.8574 97.2379 15.9655 97.019 17.3335ZM122.96 31.6566C120.963 31.6566 119.198 31.2189 117.666 30.3434C116.134 29.4405 114.944 28.1819 114.095 26.5676C113.247 24.926 112.823 22.9971 112.823 20.7809C112.823 18.8657 113.247 17.0736 114.095 15.4046C114.944 13.7356 116.134 12.395 117.666 11.3826C119.225 10.343 121.031 9.82311 123.083 9.82311C124.232 9.82311 125.354 9.98727 126.449 10.3156C127.543 10.6166 128.528 11.1501 129.404 11.9162C130.306 12.6823 131.018 13.722 131.538 15.0353C132.085 16.3485 132.345 17.9902 132.317 19.9601L118.856 20.2064C118.856 21.6838 119.034 23.0108 119.39 24.1873C119.773 25.3638 120.388 26.294 121.236 26.978C122.085 27.662 123.22 28.004 124.643 28.004C125.464 28.004 126.435 27.7852 127.557 27.3474C128.706 26.8823 129.746 26.0751 130.676 24.926L132.523 26.6497C131.538 28.0451 130.484 29.1121 129.362 29.8509C128.241 30.5622 127.119 31.041 125.997 31.2873C124.903 31.5335 123.89 31.6566 122.96 31.6566ZM119.102 17.3335H126.654C126.626 15.6372 126.298 14.447 125.669 13.763C125.04 13.0516 124.246 12.6959 123.288 12.6959C122.085 12.6959 121.141 13.1337 120.457 14.0092C119.773 14.8574 119.321 15.9655 119.102 17.3335ZM143.443 31.6566C142.622 31.6566 141.829 31.5609 141.063 31.3694C140.324 31.1778 139.64 30.8222 139.011 30.3023C138.409 29.7551 137.93 28.9617 137.574 27.922C137.218 26.8823 137.041 25.5006 137.041 23.7769L137.123 13.8861H134.332V10.4798C135.18 10.4524 136.001 10.1651 136.794 9.61791C137.588 9.0707 138.258 8.35933 138.805 7.4838C139.38 6.60827 139.763 5.6917 139.954 4.73409H142.991L142.95 10.4798H148.163V13.6399L142.95 13.763L142.909 23.859C142.909 24.4882 142.964 25.1175 143.074 25.7468C143.21 26.3487 143.457 26.8549 143.812 27.2653C144.168 27.6484 144.688 27.8399 145.372 27.8399C145.755 27.8399 146.275 27.7031 146.931 27.4295C147.615 27.1559 148.34 26.4719 149.106 25.3775L151.076 27.2243C150.338 28.3187 149.572 29.1669 148.778 29.7688C147.985 30.3707 147.219 30.8085 146.48 31.0821C145.769 31.3557 145.139 31.5198 144.592 31.5746C144.045 31.6293 143.662 31.6566 143.443 31.6566ZM152.27 28.3324C153.392 28.3324 154.076 28.004 154.322 27.3474C154.568 26.6634 154.691 25.7742 154.691 24.6798V17.867C154.691 17.3746 154.705 16.8137 154.733 16.1844C154.76 15.5277 154.801 14.8984 154.856 14.2965C154.418 14.3239 153.898 14.3512 153.296 14.3786C152.722 14.3786 152.284 14.3923 151.983 14.4196V11.3006C153.871 11.3006 155.321 11.1638 156.333 10.8902C157.373 10.6166 158.029 10.343 158.303 10.0694H160.519V24.3925C160.519 24.7755 160.506 25.3227 160.478 26.0341C160.451 26.7181 160.41 27.3748 160.355 28.004C160.793 27.9493 161.272 27.922 161.792 27.922C162.339 27.8946 162.749 27.8809 163.023 27.8809V31H152.27V28.3324ZM157.4 6.82715C156.47 6.82715 155.704 6.49883 155.102 5.84218C154.5 5.18553 154.199 4.39208 154.199 3.46183C154.199 2.53158 154.514 1.73813 155.143 1.08148C155.772 0.424837 156.511 0.0965136 157.359 0.0965136C158.235 0.0965136 158.96 0.424837 159.534 1.08148C160.136 1.73813 160.437 2.53158 160.437 3.46183C160.437 4.39208 160.164 5.18553 159.616 5.84218C159.069 6.49883 158.33 6.82715 157.4 6.82715ZM165.696 31V28.3324C166.818 28.3324 167.502 28.004 167.748 27.3474C167.995 26.6634 168.118 25.7742 168.118 24.6798V17.785C168.118 17.2925 168.132 16.7453 168.159 16.1433C168.186 15.5141 168.227 14.8984 168.282 14.2965C167.844 14.3239 167.324 14.3512 166.722 14.3786C166.148 14.3786 165.71 14.3923 165.409 14.4196V11.3006C167.297 11.3006 168.747 11.1638 169.759 10.8902C170.799 10.6166 171.456 10.343 171.729 10.0694H173.74C173.795 10.425 173.822 10.685 173.822 10.8491C173.822 11.0133 173.822 11.1774 173.822 11.3416C173.85 11.4784 173.905 11.7383 173.987 12.1214C174.534 11.6836 175.163 11.3006 175.874 10.9722C176.586 10.6166 177.297 10.343 178.009 10.1514C178.72 9.93255 179.349 9.82311 179.896 9.82311C182.414 9.82311 184.192 10.5482 185.232 11.9983C186.299 13.421 186.832 15.7193 186.832 18.8931V24.3925C186.832 24.7755 186.819 25.3227 186.791 26.0341C186.764 26.7181 186.723 27.3748 186.668 28.004C187.133 27.9493 187.626 27.922 188.146 27.922C188.665 27.8946 189.062 27.8809 189.336 27.8809V31H178.583V28.3324C179.732 28.3324 180.43 28.004 180.676 27.3474C180.922 26.6634 181.046 25.7742 181.046 24.6798L181.005 18.852C181.005 17.0736 180.745 15.7603 180.225 14.9121C179.732 14.0366 178.884 13.5988 177.68 13.5988C176.996 13.5988 176.312 13.7493 175.628 14.0503C174.972 14.3512 174.411 14.7069 173.946 15.1173V24.3925C173.946 24.7755 173.932 25.3227 173.905 26.0341C173.877 26.7181 173.836 27.3748 173.781 28.004C174.219 27.9493 174.698 27.922 175.218 27.922C175.765 27.8946 176.175 27.8809 176.449 27.8809V31H165.696ZM200.611 42.122C198.258 42.122 196.398 41.862 195.03 41.3422C193.662 40.8497 192.691 40.1931 192.116 39.3723C191.541 38.5514 191.254 37.6759 191.254 36.7457C191.254 35.8975 191.528 35.0356 192.075 34.1601C192.649 33.2846 193.675 32.5732 195.153 32.026C194.031 31.725 193.238 31.2462 192.773 30.5896C192.335 29.9056 192.116 29.1805 192.116 28.4144C192.116 27.7031 192.403 26.9096 192.978 26.0341C193.552 25.1312 194.592 24.4472 196.097 23.9821C194.948 23.517 194.004 22.7919 193.265 21.8069C192.526 20.822 192.13 19.6318 192.075 18.2364C192.02 16.5948 192.431 15.1447 193.306 13.8861C194.182 12.6002 195.331 11.6015 196.754 10.8902C198.176 10.1788 199.667 9.82311 201.227 9.82311C201.938 9.82311 202.759 9.91887 203.689 10.1104C204.62 10.3019 205.427 10.6302 206.111 11.0954C206.412 10.2472 206.795 9.45374 207.26 8.71501C207.752 7.94893 208.341 7.33332 209.025 6.86819C209.709 6.37571 210.475 6.12947 211.323 6.12947C212.253 6.12947 212.951 6.37571 213.416 6.86819C213.908 7.33332 214.155 7.96261 214.155 8.75605C214.155 9.08438 214.073 9.45374 213.908 9.86415C213.772 10.2472 213.512 10.5755 213.129 10.8491C212.773 11.1227 212.267 11.2595 211.61 11.2595C211.2 11.2595 210.789 11.109 210.379 10.8081C209.969 10.4798 209.722 10.0967 209.64 9.65895C209.285 9.76839 208.929 10.1241 208.573 10.726C208.217 11.3279 208.012 11.8615 207.958 12.3266C209.572 13.722 210.379 15.4867 210.379 17.6208C210.379 19.2077 209.928 20.6168 209.025 21.848C208.149 23.0518 207 24.0094 205.577 24.7208C204.182 25.4048 202.677 25.7468 201.063 25.7468C200.707 25.7468 200.31 25.7331 199.873 25.7058C199.435 25.6511 199.011 25.6237 198.6 25.6237C197.998 25.6237 197.492 25.7331 197.082 25.952C196.671 26.1709 196.466 26.4719 196.466 26.8549C196.466 27.3748 196.863 27.7304 197.656 27.922C198.45 28.1135 199.804 28.264 201.719 28.3734C203.826 28.4829 205.659 28.7565 207.219 29.1942C208.806 29.6046 210.037 30.2613 210.912 31.1642C211.788 32.0671 212.226 33.3119 212.226 34.8988C212.226 36.0753 211.884 37.1014 211.2 37.9769C210.516 38.8798 209.599 39.6322 208.45 40.2341C207.328 40.8634 206.083 41.3285 204.715 41.6295C203.347 41.9578 201.979 42.122 200.611 42.122ZM201.227 22.9971C201.966 22.9971 202.581 22.7645 203.074 22.2994C203.594 21.8343 203.977 21.246 204.223 20.5347C204.496 19.8233 204.633 19.0983 204.633 18.3595C204.633 17.4019 204.51 16.4853 204.264 15.6098C204.018 14.7069 203.635 13.9819 203.115 13.4347C202.622 12.8601 201.979 12.5728 201.186 12.5728C200.091 12.5728 199.243 13.0653 198.641 14.0503C198.039 15.0353 197.738 16.157 197.738 17.4156C197.738 18.3732 197.875 19.2898 198.149 20.1653C198.422 21.0135 198.819 21.6975 199.339 22.2173C199.859 22.7372 200.488 22.9971 201.227 22.9971ZM201.801 39.2902C203.744 39.2902 205.208 38.9345 206.193 38.2231C207.205 37.5118 207.711 36.773 207.711 36.0069C207.711 34.3653 205.741 33.4624 201.801 33.2983C201.2 33.2435 200.502 33.2025 199.708 33.1751C198.915 33.1478 198.217 33.0794 197.615 32.9699C197.205 33.2983 196.89 33.7087 196.671 34.2012C196.453 34.6936 196.329 35.1724 196.302 35.6376C196.247 36.732 196.712 37.6075 197.697 38.2642C198.71 38.9482 200.078 39.2902 201.801 39.2902Z" fill="#BAB3B3"/>
</svg>
